STARTFONT 2.1
FONT -FontForge-SwanSong_15-Regular-R-Normal--15-150-72-72-P-60-MacRoman-0
SIZE 15 72 72
FONTBOUNDINGBOX 11 15 0 -4
COMMENT "Generated by fontforge, http://fontforge.sourceforge.net"
STARTPROPERTIES 31
FOUNDRY "FontForge"
FAMILY_NAME "SwanSong_15"
WEIGHT_NAME "Regular"
SLANT "R"
SETWIDTH_NAME "Normal"
ADD_STYLE_NAME ""
PIXEL_SIZE 15
POINT_SIZE 150
RESOLUTION_X 72
RESOLUTION_Y 72
SPACING "P"
AVERAGE_WIDTH 60
CHARSET_REGISTRY "MacRoman"
CHARSET_ENCODING "0"
FONTNAME_REGISTRY ""
CHARSET_COLLECTIONS "MacRoman"
FONT_NAME "SwanSong_15"
FACE_NAME "SwanSong_15"
COPYRIGHT ""
FONT_VERSION "001.000"
FONT_ASCENT 11
FONT_DESCENT 4
UNDERLINE_POSITION -2
UNDERLINE_THICKNESS 1
X_HEIGHT 6
CAP_HEIGHT 8
RAW_ASCENT 800
RAW_DESCENT 200
NORM_SPACE 5
AVG_LOWERCASE_WIDTH 56
AVG_UPPERCASE_WIDTH 64
ENDPROPERTIES
CHARS 128
STARTCHAR space
ENCODING 32
SWIDTH 333 0
DWIDTH 5 0
BBX 1 1 5 -4
BITMAP
00
ENDCHAR
STARTCHAR exclam
ENCODING 33
SWIDTH 333 0
DWIDTH 5 0
BBX 3 11 1 -1
BITMAP
20
40
40
40
40
40
40
40
00
40
80
ENDCHAR
STARTCHAR quotedbl
ENCODING 34
SWIDTH 333 0
DWIDTH 5 0
BBX 4 2 0 8
BITMAP
50
A0
ENDCHAR
STARTCHAR numbersign
ENCODING 35
SWIDTH 666 0
DWIDTH 10 0
BBX 8 6 1 2
BITMAP
12
7F
24
24
FE
48
ENDCHAR
STARTCHAR dollar
ENCODING 36
SWIDTH 533 0
DWIDTH 8 0
BBX 7 10 0 -1
BITMAP
10
38
54
90
78
14
92
54
38
10
ENDCHAR
STARTCHAR percent
ENCODING 37
SWIDTH 666 0
DWIDTH 10 0
BBX 9 9 0 0
BITMAP
2100
5100
9200
6400
0800
1100
2280
4480
4300
ENDCHAR
STARTCHAR ampersand
ENCODING 38
SWIDTH 600 0
DWIDTH 9 0
BBX 8 9 0 0
BITMAP
10
28
48
50
28
45
82
85
78
ENDCHAR
STARTCHAR quotesingle
ENCODING 39
SWIDTH 133 0
DWIDTH 2 0
BBX 2 2 0 8
BITMAP
40
80
ENDCHAR
STARTCHAR parenleft
ENCODING 40
SWIDTH 333 0
DWIDTH 5 0
BBX 3 13 1 -3
BITMAP
20
40
80
80
80
80
80
80
80
80
80
40
20
ENDCHAR
STARTCHAR parenright
ENCODING 41
SWIDTH 333 0
DWIDTH 5 0
BBX 3 13 1 -3
BITMAP
80
40
20
20
20
20
20
20
20
20
20
40
80
ENDCHAR
STARTCHAR asterisk
ENCODING 42
SWIDTH 533 0
DWIDTH 8 0
BBX 5 5 1 3
BITMAP
20
A8
70
A8
20
ENDCHAR
STARTCHAR plus
ENCODING 43
SWIDTH 533 0
DWIDTH 8 0
BBX 5 5 1 1
BITMAP
20
20
F8
20
20
ENDCHAR
STARTCHAR comma
ENCODING 44
SWIDTH 266 0
DWIDTH 4 0
BBX 2 4 0 -2
BITMAP
40
C0
40
80
ENDCHAR
STARTCHAR hyphen
ENCODING 45
SWIDTH 466 0
DWIDTH 7 0
BBX 5 1 1 3
BITMAP
F8
ENDCHAR
STARTCHAR period
ENCODING 46
SWIDTH 266 0
DWIDTH 4 0
BBX 2 2 0 0
BITMAP
40
80
ENDCHAR
STARTCHAR slash
ENCODING 47
SWIDTH 466 0
DWIDTH 7 0
BBX 5 8 1 0
BITMAP
08
10
10
20
20
40
40
80
ENDCHAR
STARTCHAR zero
ENCODING 48
SWIDTH 400 0
DWIDTH 6 0
BBX 5 7 0 0
BITMAP
20
50
88
88
88
88
70
ENDCHAR
STARTCHAR one
ENCODING 49
SWIDTH 400 0
DWIDTH 6 0
BBX 3 7 1 0
BITMAP
20
60
A0
20
20
20
20
ENDCHAR
STARTCHAR two
ENCODING 50
SWIDTH 400 0
DWIDTH 6 0
BBX 5 7 0 0
BITMAP
20
50
88
10
20
40
F8
ENDCHAR
STARTCHAR three
ENCODING 51
SWIDTH 400 0
DWIDTH 6 0
BBX 5 10 0 -3
BITMAP
20
50
88
08
10
08
08
10
20
C0
ENDCHAR
STARTCHAR four
ENCODING 52
SWIDTH 400 0
DWIDTH 6 0
BBX 6 10 0 -3
BITMAP
08
18
28
48
88
FC
08
08
08
10
ENDCHAR
STARTCHAR five
ENCODING 53
SWIDTH 400 0
DWIDTH 6 0
BBX 6 10 0 -3
BITMAP
1C
20
20
40
70
08
08
10
20
C0
ENDCHAR
STARTCHAR six
ENCODING 54
SWIDTH 400 0
DWIDTH 6 0
BBX 5 10 0 -1
BITMAP
18
20
40
90
A8
C8
88
88
50
20
ENDCHAR
STARTCHAR seven
ENCODING 55
SWIDTH 400 0
DWIDTH 6 0
BBX 5 10 0 -3
BITMAP
38
48
88
10
10
20
20
40
40
40
ENDCHAR
STARTCHAR eight
ENCODING 56
SWIDTH 400 0
DWIDTH 6 0
BBX 5 10 0 -1
BITMAP
20
50
88
88
70
88
88
88
50
20
ENDCHAR
STARTCHAR nine
ENCODING 57
SWIDTH 400 0
DWIDTH 6 0
BBX 5 10 0 -3
BITMAP
20
50
88
88
98
A8
48
10
20
C0
ENDCHAR
STARTCHAR colon
ENCODING 58
SWIDTH 266 0
DWIDTH 4 0
BBX 2 5 0 0
BITMAP
40
80
00
40
80
ENDCHAR
STARTCHAR semicolon
ENCODING 59
SWIDTH 266 0
DWIDTH 4 0
BBX 2 7 0 -2
BITMAP
40
80
00
40
C0
40
80
ENDCHAR
STARTCHAR less
ENCODING 60
SWIDTH 533 0
DWIDTH 8 0
BBX 5 9 1 0
BITMAP
08
10
20
40
80
40
20
10
08
ENDCHAR
STARTCHAR equal
ENCODING 61
SWIDTH 400 0
DWIDTH 6 0
BBX 5 3 0 2
BITMAP
F8
00
F8
ENDCHAR
STARTCHAR greater
ENCODING 62
SWIDTH 533 0
DWIDTH 8 0
BBX 5 9 1 0
BITMAP
80
40
20
10
08
10
20
40
80
ENDCHAR
STARTCHAR question
ENCODING 63
SWIDTH 466 0
DWIDTH 7 0
BBX 5 11 1 -1
BITMAP
10
28
48
88
08
10
20
40
00
20
40
ENDCHAR
STARTCHAR at
ENCODING 64
SWIDTH 733 0
DWIDTH 11 0
BBX 8 9 1 0
BITMAP
1C
22
49
95
A5
A5
BB
40
3E
ENDCHAR
STARTCHAR A
ENCODING 65
SWIDTH 400 0
DWIDTH 6 0
BBX 5 9 0 0
BITMAP
10
28
48
88
F8
88
88
88
88
ENDCHAR
STARTCHAR B
ENCODING 66
SWIDTH 400 0
DWIDTH 6 0
BBX 5 9 0 0
BITMAP
10
28
48
88
F0
88
88
88
F0
ENDCHAR
STARTCHAR C
ENCODING 67
SWIDTH 400 0
DWIDTH 6 0
BBX 5 9 0 0
BITMAP
10
28
40
80
80
80
80
88
70
ENDCHAR
STARTCHAR D
ENCODING 68
SWIDTH 466 0
DWIDTH 7 0
BBX 6 9 0 0
BITMAP
10
28
44
84
84
84
84
88
F0
ENDCHAR
STARTCHAR E
ENCODING 69
SWIDTH 400 0
DWIDTH 6 0
BBX 5 9 0 0
BITMAP
10
28
40
80
F0
80
80
88
F0
ENDCHAR
STARTCHAR F
ENCODING 70
SWIDTH 400 0
DWIDTH 6 0
BBX 6 11 0 -2
BITMAP
08
14
20
40
78
40
40
40
40
40
80
ENDCHAR
STARTCHAR G
ENCODING 71
SWIDTH 466 0
DWIDTH 7 0
BBX 6 9 0 0
BITMAP
10
28
40
80
88
94
84
88
70
ENDCHAR
STARTCHAR H
ENCODING 72
SWIDTH 400 0
DWIDTH 6 0
BBX 5 9 0 0
BITMAP
08
88
88
98
E8
88
88
88
88
ENDCHAR
STARTCHAR I
ENCODING 73
SWIDTH 266 0
DWIDTH 4 0
BBX 3 10 0 -1
BITMAP
20
40
40
40
40
40
40
40
40
80
ENDCHAR
STARTCHAR J
ENCODING 74
SWIDTH 400 0
DWIDTH 6 0
BBX 6 12 0 -3
BITMAP
04
08
08
08
08
08
08
08
08
10
20
C0
ENDCHAR
STARTCHAR K
ENCODING 75
SWIDTH 466 0
DWIDTH 7 0
BBX 6 9 0 0
BITMAP
88
94
A0
C0
A0
90
88
84
84
ENDCHAR
STARTCHAR L
ENCODING 76
SWIDTH 400 0
DWIDTH 6 0
BBX 5 9 0 0
BITMAP
40
80
80
80
80
80
80
88
F0
ENDCHAR
STARTCHAR M
ENCODING 77
SWIDTH 666 0
DWIDTH 10 0
BBX 9 9 0 0
BITMAP
1100
2A80
4C80
8880
8880
8880
8880
8880
8880
ENDCHAR
STARTCHAR N
ENCODING 78
SWIDTH 400 0
DWIDTH 6 0
BBX 5 9 0 0
BITMAP
10
28
48
88
88
88
88
88
88
ENDCHAR
STARTCHAR O
ENCODING 79
SWIDTH 400 0
DWIDTH 6 0
BBX 5 9 0 0
BITMAP
10
28
48
88
88
88
88
90
60
ENDCHAR
STARTCHAR P
ENCODING 80
SWIDTH 466 0
DWIDTH 7 0
BBX 6 11 0 -2
BITMAP
08
14
24
44
48
70
40
40
40
40
80
ENDCHAR
STARTCHAR Q
ENCODING 81
SWIDTH 400 0
DWIDTH 6 0
BBX 5 9 0 0
BITMAP
10
28
48
88
88
88
A8
90
68
ENDCHAR
STARTCHAR R
ENCODING 82
SWIDTH 400 0
DWIDTH 6 0
BBX 5 9 0 0
BITMAP
10
28
48
88
90
E0
90
88
88
ENDCHAR
STARTCHAR S
ENCODING 83
SWIDTH 333 0
DWIDTH 5 0
BBX 5 11 0 -2
BITMAP
10
28
40
40
20
10
10
10
20
40
80
ENDCHAR
STARTCHAR T
ENCODING 84
SWIDTH 333 0
DWIDTH 5 0
BBX 5 10 0 -1
BITMAP
30
68
A0
20
20
20
20
20
20
40
ENDCHAR
STARTCHAR U
ENCODING 85
SWIDTH 400 0
DWIDTH 6 0
BBX 5 9 0 0
BITMAP
08
48
88
88
88
88
88
90
60
ENDCHAR
STARTCHAR V
ENCODING 86
SWIDTH 533 0
DWIDTH 8 0
BBX 8 9 0 0
BITMAP
01
81
41
42
22
24
14
18
10
ENDCHAR
STARTCHAR W
ENCODING 87
SWIDTH 733 0
DWIDTH 11 0
BBX 11 9 0 0
BITMAP
0020
8020
4020
4440
4440
2A80
2A80
3300
2200
ENDCHAR
STARTCHAR X
ENCODING 88
SWIDTH 533 0
DWIDTH 8 0
BBX 8 9 0 0
BITMAP
01
41
22
22
14
08
14
22
C1
ENDCHAR
STARTCHAR Y
ENCODING 89
SWIDTH 466 0
DWIDTH 7 0
BBX 7 10 0 -1
BITMAP
02
82
44
44
28
28
10
10
10
20
ENDCHAR
STARTCHAR Z
ENCODING 90
SWIDTH 533 0
DWIDTH 8 0
BBX 7 9 0 0
BITMAP
1E
22
44
08
10
20
40
82
FC
ENDCHAR
STARTCHAR bracketleft
ENCODING 91
SWIDTH 333 0
DWIDTH 5 0
BBX 3 15 1 -4
BITMAP
E0
80
80
80
80
80
80
80
80
80
80
80
80
80
E0
ENDCHAR
STARTCHAR backslash
ENCODING 92
SWIDTH 400 0
DWIDTH 6 0
BBX 4 8 1 0
BITMAP
80
80
40
40
20
20
10
10
ENDCHAR
STARTCHAR bracketright
ENCODING 93
SWIDTH 333 0
DWIDTH 5 0
BBX 3 15 1 -4
BITMAP
E0
20
20
20
20
20
20
20
20
20
20
20
20
20
E0
ENDCHAR
STARTCHAR asciicircum
ENCODING 94
SWIDTH 733 0
DWIDTH 11 0
BBX 7 3 2 5
BITMAP
10
6C
82
ENDCHAR
STARTCHAR underscore
ENCODING 95
SWIDTH 533 0
DWIDTH 8 0
BBX 8 1 0 -2
BITMAP
FF
ENDCHAR
STARTCHAR grave
ENCODING 96
SWIDTH 733 0
DWIDTH 11 0
BBX 6 3 2 6
BITMAP
C0
30
0C
ENDCHAR
STARTCHAR a
ENCODING 97
SWIDTH 400 0
DWIDTH 6 0
BBX 5 7 0 0
BITMAP
10
28
48
88
88
98
68
ENDCHAR
STARTCHAR b
ENCODING 98
SWIDTH 400 0
DWIDTH 6 0
BBX 5 10 0 0
BITMAP
40
80
80
90
A8
C8
88
88
90
E0
ENDCHAR
STARTCHAR c
ENCODING 99
SWIDTH 333 0
DWIDTH 5 0
BBX 5 7 0 0
BITMAP
10
28
40
80
80
90
60
ENDCHAR
STARTCHAR d
ENCODING 100
SWIDTH 400 0
DWIDTH 6 0
BBX 6 10 0 0
BITMAP
04
08
08
18
28
48
88
88
98
68
ENDCHAR
STARTCHAR e
ENCODING 101
SWIDTH 333 0
DWIDTH 5 0
BBX 5 7 0 0
BITMAP
10
28
50
A0
80
90
60
ENDCHAR
STARTCHAR f
ENCODING 102
SWIDTH 266 0
DWIDTH 4 0
BBX 4 12 0 -2
BITMAP
10
20
40
40
F0
40
40
40
40
40
40
80
ENDCHAR
STARTCHAR g
ENCODING 103
SWIDTH 400 0
DWIDTH 6 0
BBX 5 10 0 -3
BITMAP
10
28
48
88
88
98
68
10
20
C0
ENDCHAR
STARTCHAR h
ENCODING 104
SWIDTH 400 0
DWIDTH 6 0
BBX 5 10 0 0
BITMAP
40
80
80
90
A8
C8
88
88
88
88
ENDCHAR
STARTCHAR i
ENCODING 105
SWIDTH 200 0
DWIDTH 3 0
BBX 2 9 0 -1
BITMAP
40
00
40
40
40
40
40
40
80
ENDCHAR
STARTCHAR j
ENCODING 106
SWIDTH 333 0
DWIDTH 5 0
BBX 4 12 0 -4
BITMAP
20
00
10
20
20
20
20
20
20
20
40
80
ENDCHAR
STARTCHAR k
ENCODING 107
SWIDTH 466 0
DWIDTH 7 0
BBX 6 11 0 -1
BITMAP
20
40
40
48
54
60
50
48
44
44
80
ENDCHAR
STARTCHAR l
ENCODING 108
SWIDTH 200 0
DWIDTH 3 0
BBX 3 11 0 -1
BITMAP
20
40
40
40
40
40
40
40
40
40
80
ENDCHAR
STARTCHAR m
ENCODING 109
SWIDTH 666 0
DWIDTH 10 0
BBX 9 7 0 0
BITMAP
1100
2A80
4C80
8880
8880
8880
8880
ENDCHAR
STARTCHAR n
ENCODING 110
SWIDTH 400 0
DWIDTH 6 0
BBX 5 7 0 0
BITMAP
10
28
48
88
88
88
88
ENDCHAR
STARTCHAR o
ENCODING 111
SWIDTH 400 0
DWIDTH 6 0
BBX 5 7 0 0
BITMAP
10
28
48
88
88
90
60
ENDCHAR
STARTCHAR p
ENCODING 112
SWIDTH 400 0
DWIDTH 6 0
BBX 5 10 0 -3
BITMAP
10
28
48
88
88
90
E0
80
80
80
ENDCHAR
STARTCHAR q
ENCODING 113
SWIDTH 400 0
DWIDTH 6 0
BBX 6 11 0 -4
BITMAP
10
28
48
88
88
98
68
10
14
18
10
ENDCHAR
STARTCHAR r
ENCODING 114
SWIDTH 266 0
DWIDTH 4 0
BBX 4 7 0 0
BITMAP
20
50
80
80
80
80
80
ENDCHAR
STARTCHAR s
ENCODING 115
SWIDTH 333 0
DWIDTH 5 0
BBX 5 8 0 -1
BITMAP
10
28
40
20
10
10
20
C0
ENDCHAR
STARTCHAR t
ENCODING 116
SWIDTH 333 0
DWIDTH 5 0
BBX 5 9 0 -1
BITMAP
20
38
60
A0
20
20
20
20
40
ENDCHAR
STARTCHAR u
ENCODING 117
SWIDTH 400 0
DWIDTH 6 0
BBX 5 7 0 0
BITMAP
08
88
88
88
88
90
60
ENDCHAR
STARTCHAR v
ENCODING 118
SWIDTH 466 0
DWIDTH 7 0
BBX 6 7 0 0
BITMAP
04
84
44
48
28
30
20
ENDCHAR
STARTCHAR w
ENCODING 119
SWIDTH 600 0
DWIDTH 9 0
BBX 9 7 0 0
BITMAP
0080
8880
8880
5500
5500
6600
4400
ENDCHAR
STARTCHAR x
ENCODING 120
SWIDTH 466 0
DWIDTH 7 0
BBX 6 7 0 0
BITMAP
04
44
28
28
10
28
C4
ENDCHAR
STARTCHAR y
ENCODING 121
SWIDTH 533 0
DWIDTH 8 0
BBX 7 10 0 -3
BITMAP
02
42
22
22
14
14
18
10
20
C0
ENDCHAR
STARTCHAR z
ENCODING 122
SWIDTH 466 0
DWIDTH 7 0
BBX 6 7 0 0
BITMAP
3C
44
08
10
20
44
F8
ENDCHAR
STARTCHAR braceleft
ENCODING 123
SWIDTH 333 0
DWIDTH 5 0
BBX 3 11 1 -2
BITMAP
20
40
40
40
40
80
40
40
40
40
20
ENDCHAR
STARTCHAR bar
ENCODING 124
SWIDTH 333 0
DWIDTH 5 0
BBX 1 11 2 -2
BITMAP
80
80
80
80
80
80
80
80
80
80
80
ENDCHAR
STARTCHAR braceright
ENCODING 125
SWIDTH 333 0
DWIDTH 5 0
BBX 3 11 1 -2
BITMAP
80
40
40
40
40
20
40
40
40
40
80
ENDCHAR
STARTCHAR asciitilde
ENCODING 126
SWIDTH 533 0
DWIDTH 8 0
BBX 6 2 1 5
BITMAP
64
98
ENDCHAR
STARTCHAR uni007F
ENCODING 127
SWIDTH 0 0
DWIDTH 0 0
BBX 1 1 0 -4
BITMAP
00
ENDCHAR
STARTCHAR Adieresis
ENCODING 128
SWIDTH 400 0
DWIDTH 6 0
BBX 5 10 0 0
BITMAP
28
10
28
48
88
F8
88
88
88
88
ENDCHAR
STARTCHAR Aring
ENCODING 129
SWIDTH 400 0
DWIDTH 6 0
BBX 5 11 0 0
BITMAP
10
28
10
28
48
88
F8
88
88
88
88
ENDCHAR
STARTCHAR Ccedilla
ENCODING 130
SWIDTH 400 0
DWIDTH 6 0
BBX 5 11 0 -2
BITMAP
10
28
40
80
80
80
80
88
70
10
20
ENDCHAR
STARTCHAR Eacute
ENCODING 131
SWIDTH 400 0
DWIDTH 6 0
BBX 5 11 0 0
BITMAP
10
20
10
28
40
80
F0
80
80
88
F0
ENDCHAR
STARTCHAR Ntilde
ENCODING 132
SWIDTH 400 0
DWIDTH 6 0
BBX 5 11 0 0
BITMAP
28
50
10
28
48
88
88
88
88
88
88
ENDCHAR
STARTCHAR Odieresis
ENCODING 133
SWIDTH 400 0
DWIDTH 6 0
BBX 5 10 0 0
BITMAP
28
10
28
48
88
88
88
88
90
60
ENDCHAR
STARTCHAR Udieresis
ENCODING 134
SWIDTH 400 0
DWIDTH 6 0
BBX 5 10 0 0
BITMAP
50
08
48
88
88
88
88
88
90
60
ENDCHAR
STARTCHAR aacute
ENCODING 135
SWIDTH 400 0
DWIDTH 6 0
BBX 5 10 0 0
BITMAP
10
20
00
10
28
48
88
88
98
68
ENDCHAR
STARTCHAR agrave
ENCODING 136
SWIDTH 400 0
DWIDTH 6 0
BBX 5 10 0 0
BITMAP
20
10
00
10
28
48
88
88
98
68
ENDCHAR
STARTCHAR acircumflex
ENCODING 137
SWIDTH 400 0
DWIDTH 6 0
BBX 5 10 0 0
BITMAP
20
50
00
10
28
48
88
88
98
68
ENDCHAR
STARTCHAR adieresis
ENCODING 138
SWIDTH 400 0
DWIDTH 6 0
BBX 5 9 0 0
BITMAP
50
00
10
28
48
88
88
98
68
ENDCHAR
STARTCHAR atilde
ENCODING 139
SWIDTH 400 0
DWIDTH 6 0
BBX 5 10 0 0
BITMAP
28
50
00
10
28
48
88
88
98
68
ENDCHAR
STARTCHAR aring
ENCODING 140
SWIDTH 400 0
DWIDTH 6 0
BBX 5 10 0 0
BITMAP
20
50
20
10
28
48
88
88
98
68
ENDCHAR
STARTCHAR ccedilla
ENCODING 141
SWIDTH 333 0
DWIDTH 5 0
BBX 5 9 0 -2
BITMAP
10
28
40
80
80
90
60
20
40
ENDCHAR
STARTCHAR eacute
ENCODING 142
SWIDTH 333 0
DWIDTH 5 0
BBX 5 10 0 0
BITMAP
10
20
00
10
28
50
A0
80
90
60
ENDCHAR
STARTCHAR egrave
ENCODING 143
SWIDTH 333 0
DWIDTH 5 0
BBX 5 10 0 0
BITMAP
20
10
00
10
28
50
A0
80
90
60
ENDCHAR
STARTCHAR ecircumflex
ENCODING 144
SWIDTH 333 0
DWIDTH 5 0
BBX 5 10 0 0
BITMAP
20
50
00
10
28
50
A0
80
90
60
ENDCHAR
STARTCHAR edieresis
ENCODING 145
SWIDTH 333 0
DWIDTH 5 0
BBX 5 9 0 0
BITMAP
50
00
10
28
50
A0
80
90
60
ENDCHAR
STARTCHAR iacute
ENCODING 146
SWIDTH 200 0
DWIDTH 3 0
BBX 3 11 0 -1
BITMAP
20
40
00
00
40
40
40
40
40
40
80
ENDCHAR
STARTCHAR igrave
ENCODING 147
SWIDTH 200 0
DWIDTH 3 0
BBX 2 11 0 -1
BITMAP
80
40
00
00
40
40
40
40
40
40
80
ENDCHAR
STARTCHAR icircumflex
ENCODING 148
SWIDTH 200 0
DWIDTH 3 0
BBX 3 11 0 -1
BITMAP
40
A0
00
00
40
40
40
40
40
40
80
ENDCHAR
STARTCHAR idieresis
ENCODING 149
SWIDTH 200 0
DWIDTH 3 0
BBX 3 10 0 -1
BITMAP
A0
00
00
40
40
40
40
40
40
80
ENDCHAR
STARTCHAR ntilde
ENCODING 150
SWIDTH 400 0
DWIDTH 6 0
BBX 5 10 0 0
BITMAP
28
50
00
10
28
48
88
88
88
88
ENDCHAR
STARTCHAR oacute
ENCODING 151
SWIDTH 400 0
DWIDTH 6 0
BBX 5 10 0 0
BITMAP
10
20
00
10
28
48
88
88
90
60
ENDCHAR
STARTCHAR ograve
ENCODING 152
SWIDTH 400 0
DWIDTH 6 0
BBX 5 10 0 0
BITMAP
20
10
00
10
28
48
88
88
90
60
ENDCHAR
STARTCHAR ocircumflex
ENCODING 153
SWIDTH 400 0
DWIDTH 6 0
BBX 5 10 0 0
BITMAP
20
50
00
10
28
48
88
88
90
60
ENDCHAR
STARTCHAR odieresis
ENCODING 154
SWIDTH 400 0
DWIDTH 6 0
BBX 5 9 0 0
BITMAP
50
00
10
28
48
88
88
90
60
ENDCHAR
STARTCHAR otilde
ENCODING 155
SWIDTH 400 0
DWIDTH 6 0
BBX 5 10 0 0
BITMAP
28
50
00
10
28
48
88
88
90
60
ENDCHAR
STARTCHAR uacute
ENCODING 156
SWIDTH 400 0
DWIDTH 6 0
BBX 5 10 0 0
BITMAP
10
20
00
08
88
88
88
88
90
60
ENDCHAR
STARTCHAR ugrave
ENCODING 157
SWIDTH 400 0
DWIDTH 6 0
BBX 5 10 0 0
BITMAP
20
10
00
08
88
88
88
88
90
60
ENDCHAR
STARTCHAR ucircumflex
ENCODING 158
SWIDTH 400 0
DWIDTH 6 0
BBX 5 10 0 0
BITMAP
20
50
00
08
88
88
88
88
90
60
ENDCHAR
STARTCHAR udieresis
ENCODING 159
SWIDTH 400 0
DWIDTH 6 0
BBX 5 9 0 0
BITMAP
50
00
08
88
88
88
88
90
60
ENDCHAR
ENDFONT
